<svg width="111" height="110" viewBox="0 0 111 110" fill="none" xmlns="http://www.w3.org/2000/svg">
<circle cx="55.5" cy="55" r="55" fill="white"/>
<path d="M33.8069 57.9056L34.0724 57.3073L33.6304 56.8247C31.637 54.6479 30.5 52.0593 30.5 49.2857C30.5 42.1732 38.105 36 48.0714 36C58.0379 36 65.6429 42.1732 65.6429 49.2857C65.6429 56.3982 58.0379 62.5714 48.0714 62.5714C44.561 62.5714 41.3093 61.775 38.5722 60.4404L38.0921 60.2063L37.6306 60.4752C35.9169 61.4735 33.6108 62.4259 30.8551 62.5563C31.5488 61.7246 32.8888 59.9748 33.8069 57.9056ZM30.4189 63.0571C30.4223 63.0535 30.4262 63.0493 30.4306 63.0445C30.4269 63.0489 30.4231 63.0531 30.4191 63.0573L30.4189 63.0571ZM76.7995 68.2518L76.3563 68.734L76.6212 69.333C77.5389 71.4083 78.8781 73.1546 79.5722 73.9848C76.8171 73.8542 74.5114 72.902 72.798 71.9038L72.3351 71.6341L71.8541 71.8701C69.12 73.2117 65.8693 74 62.3571 74C55.8181 74 50.2103 71.298 47.1927 67.4106C47.4826 67.4222 47.7754 67.4286 48.0714 67.4286C60.2162 67.4286 70.5 59.4902 70.5 49.2857C70.5 49.1727 70.4988 49.0598 70.4965 48.947C76.2132 51.2172 79.9286 55.7238 79.9286 60.7143C79.9286 63.4889 78.7908 66.0856 76.7995 68.2518ZM79.995 74.4704C79.9927 74.4679 79.9905 74.4653 79.9883 74.4627C79.9907 74.4653 79.993 74.4678 79.9952 74.4702L79.995 74.4704Z" stroke="#324536" stroke-width="2"/>
</svg>
