<svg width="73" height="73" viewBox="0 0 73 73" fill="none" xmlns="http://www.w3.org/2000/svg">
<circle cx="36.5" cy="36.5" r="36.5" fill="#324536"/>
<path d="M28.7438 18.02H45.3513C47.0399 18.02 48.4101 19.3902 48.4101 21.0788V51.9213C48.4101 53.6099 47.0399 54.98 45.3513 54.98H28.7438C27.0552 54.98 25.6851 53.6099 25.6851 51.9213V21.0788C25.6851 19.3902 27.0552 18.02 28.7438 18.02ZM34.1751 50.735C34.1751 52.3234 35.4591 53.6075 37.0476 53.6075C38.636 53.6075 39.9201 52.3234 39.9201 50.735C39.9201 49.1466 38.636 47.8625 37.0476 47.8625C35.4591 47.8625 34.1751 49.1466 34.1751 50.735ZM44.4616 46.49C45.2271 46.49 45.8513 45.8658 45.8513 45.1003V21.9685C45.8513 21.203 45.2271 20.5788 44.4616 20.5788H29.6335C28.868 20.5788 28.2438 21.203 28.2438 21.9685V45.1003C28.2438 45.8658 28.868 46.49 29.6335 46.49H44.4616Z" stroke="white"/>
</svg>
