<svg width="73" height="73" viewBox="0 0 73 73" fill="none" xmlns="http://www.w3.org/2000/svg">
<circle cx="36.5" cy="36.5" r="36.5" fill="#324536"/>
<path d="M50 34C50 44.8889 36 54.2222 36 54.2222C36 54.2222 22 44.8889 22 34C22 30.287 23.475 26.726 26.1005 24.1005C28.726 21.475 32.287 20 36 20C39.713 20 43.274 21.475 45.8995 24.1005C48.525 26.726 50 30.287 50 34Z" stroke="white" stroke-linecap="round" stroke-linejoin="round"/>
<path d="M35.9999 38.6666C38.5772 38.6666 40.6666 36.5772 40.6666 33.9999C40.6666 31.4226 38.5772 29.3333 35.9999 29.3333C33.4226 29.3333 31.3333 31.4226 31.3333 33.9999C31.3333 36.5772 33.4226 38.6666 35.9999 38.6666Z" stroke="white" stroke-linecap="round" stroke-linejoin="round"/>
</svg>
