<svg width="73" height="73" viewBox="0 0 73 73" fill="none" xmlns="http://www.w3.org/2000/svg">
<circle cx="36.5" cy="36.5" r="36.5" fill="#324536"/>
<path d="M35.4484 52.9701C33.5149 50.167 31.8673 47.8199 30.4645 45.8216M35.4484 52.9701C35.4485 52.9702 35.4485 52.9702 35.4485 52.9703L35.037 53.2542L35.4481 52.9696C35.4482 52.9698 35.4483 52.97 35.4484 52.9701ZM35.4484 52.9701L30.4645 45.8216M30.4645 45.8216C27.9475 42.236 26.2186 39.7731 25.0397 37.8129M30.4645 45.8216L25.0397 37.8129M25.0397 37.8129C24.1281 36.297 23.5643 35.111 23.2251 33.9656M25.0397 37.8129L23.2251 33.9656M23.2251 33.9656C22.887 32.8241 22.7649 31.6987 22.7649 30.2951M23.2251 33.9656L22.7649 30.2951M22.7649 30.2951C22.7649 22.7094 28.9142 16.5601 36.4999 16.5601M22.7649 30.2951L36.4999 16.5601M36.4999 16.5601C44.0855 16.5601 50.2349 22.7094 50.2349 30.2951M36.4999 16.5601L50.2349 30.2951M50.2349 30.2951C50.2349 31.6987 50.1128 32.8241 49.7747 33.9656M50.2349 30.2951L49.7747 33.9656M49.7747 33.9656C49.4355 35.111 48.8717 36.297 47.9601 37.8129M49.7747 33.9656L47.9601 37.8129M47.9601 37.8129C46.7812 39.7731 45.0523 42.236 42.5353 45.8215M47.9601 37.8129L42.5353 45.8215M42.5353 45.8215C41.1326 47.8198 39.4851 50.1667 37.5517 52.9696L42.5353 45.8215ZM36.4999 36.7263C40.0518 36.7263 42.9311 33.847 42.9311 30.2951C42.9311 26.7432 40.0518 23.8638 36.4999 23.8638C32.948 23.8638 30.0686 26.7432 30.0686 30.2951C30.0686 33.847 32.948 36.7263 36.4999 36.7263Z" stroke="white"/>
</svg>
