<svg width="73" height="73" viewBox="0 0 73 73" fill="none" xmlns="http://www.w3.org/2000/svg">
<circle cx="36.5" cy="36.5" r="36.5" fill="#324536"/>
<path d="M41.9639 40.2264C47.726 35.8643 49.635 34.3805 50.9649 33.31V45.7872C50.9649 47.1843 49.8821 48.2825 48.5906 48.2825H23.6793C22.3878 48.2825 21.3049 47.1843 21.3049 45.7872V33.3161C22.6357 34.3862 24.5505 35.8648 30.3115 40.2261C30.4849 40.358 30.6851 40.5189 30.9061 40.6965C31.4378 41.1239 32.0898 41.648 32.7778 42.0968C33.7577 42.736 34.9229 43.3041 36.1341 43.2981C37.3532 43.3077 38.5331 42.7289 39.518 42.0848C40.2084 41.6333 40.8609 41.1075 41.3837 40.6863C41.6019 40.5105 41.7976 40.3528 41.9639 40.2264ZM36.1439 40.2951L36.1349 40.2949L36.1259 40.2951C35.8842 40.2994 35.5769 40.2207 35.2108 40.0539C34.8498 39.8895 34.4653 39.6552 34.0782 39.3871C33.5639 39.0308 33.0937 38.6517 32.6771 38.3159C32.4485 38.1316 32.236 37.9603 32.0413 37.8129L32.0411 37.8128C24.6821 32.2477 23.6258 31.3862 22.0582 30.1078C21.9342 30.0066 21.8069 29.9029 21.6731 29.7939C21.4425 29.6027 21.3049 29.3144 21.3049 29.001V27.8154C21.3049 26.4182 22.3878 25.3201 23.6793 25.3201H48.5906C49.8821 25.3201 50.9649 26.4182 50.9649 27.8154V29.001C50.9649 29.3183 50.8246 29.6097 50.5996 29.7916L50.5976 29.7933C50.4942 29.8778 50.3948 29.9591 50.2977 30.0386C48.6808 31.3617 47.7231 32.1453 40.2287 37.8128L40.2286 37.8129C40.0338 37.9603 39.8213 38.1316 39.5928 38.3159C39.1761 38.6518 38.706 39.0308 38.1916 39.3871C37.8046 39.6552 37.4201 39.8895 37.0591 40.0539C36.6929 40.2207 36.3857 40.2994 36.1439 40.2951Z" stroke="white"/>
</svg>
