<svg width="110" height="110" viewBox="0 0 110 110" fill="none" xmlns="http://www.w3.org/2000/svg">
<circle cx="55" cy="55" r="55" fill="white"/>
<path d="M59.1198 54.2929L58.4128 55L59.1198 55.7071L73.9788 70.5669L73.9788 70.5669C74.0075 70.5956 74.0064 70.6404 73.9796 70.6671L73.9788 70.6679C71.4408 73.2059 67.3248 73.2059 64.7868 70.6679C64.7868 70.6679 64.7867 70.6679 64.7867 70.6679L54.4733 60.3536L53.7662 59.6465L53.0591 60.3536L50.8394 62.5732L50.3755 63.0372L50.6164 63.6475C50.9559 64.5077 51.143 65.4449 51.143 66.4286C51.143 70.6102 47.7532 74 43.5715 74C39.3898 74 36 70.6102 36 66.4286C36 62.2469 39.3898 58.8571 43.5715 58.8571C43.9288 58.8571 44.2808 58.8824 44.6261 58.9306L45.1193 58.9994L45.4714 58.6473L48.4116 55.7071L49.1188 55L48.4116 54.2929L45.4714 51.3527L45.1193 51.0006L44.6261 51.0694C44.2808 51.1176 43.9296 51.1429 43.5715 51.1429C39.3898 51.1429 36 47.7531 36 43.5714C36 39.3898 39.3898 36 43.5715 36C47.7532 36 51.143 39.3898 51.143 43.5714C51.143 44.5551 50.9559 45.4923 50.6164 46.3525L50.3755 46.9628L50.8394 47.4268L53.0591 49.6464L53.7662 50.3535L54.4733 49.6464L64.7867 39.3321C64.7867 39.3321 64.7868 39.3321 64.7868 39.3321C67.3248 36.7941 71.4408 36.7941 73.9788 39.3321L73.9796 39.3329C74.0064 39.3596 74.0075 39.4044 73.9788 39.4331L73.9788 39.4331L59.1198 54.2929ZM39.7143 43.5714C39.7143 45.6987 41.4442 47.4286 43.5715 47.4286C45.6988 47.4286 47.4286 45.6987 47.4286 43.5714C47.4286 41.4441 45.6988 39.7143 43.5715 39.7143C41.4442 39.7143 39.7143 41.4441 39.7143 43.5714ZM39.7143 66.4286C39.7143 68.5559 41.4442 70.2857 43.5715 70.2857C45.6988 70.2857 47.4286 68.5559 47.4286 66.4286C47.4286 64.3013 45.6988 62.5714 43.5715 62.5714C41.4442 62.5714 39.7143 64.3013 39.7143 66.4286Z" stroke="#324536" stroke-width="2"/>
</svg>
