<svg width="19" height="17" viewBox="0 0 19 17" fill="none" xmlns="http://www.w3.org/2000/svg">
<path d="M6.48411 7.9585C7.21329 8.05572 7.84525 8.42032 8.37998 9.05227C8.91472 9.68423 9.10917 10.5592 8.96333 11.6773C8.72027 13.0871 7.99109 14.2781 6.77578 15.2503C5.56048 16.2226 4.24795 16.6115 2.8382 16.417C1.57429 16.2712 0.747879 15.6635 0.358982 14.5941C-0.0299152 13.5246 -0.102833 12.3093 0.140227 10.9481C0.286064 10.2676 0.504818 9.46548 0.796491 8.54185C1.08816 7.61822 1.50137 6.67028 2.0361 5.69804C2.57083 4.72579 3.2271 3.77786 4.00489 2.85423C4.8313 1.9306 5.80354 1.10419 6.92162 0.375008C7.40774 0.0833351 7.77233 -0.0381952 8.01539 0.0104169C8.30707 0.0104169 8.50152 0.131947 8.59874 0.375008C8.69596 0.569456 8.69596 0.836823 8.59874 1.17711C8.55013 1.46878 8.37998 1.76045 8.08831 2.05213C7.60219 2.68408 7.04315 3.5348 6.41119 4.60426C5.77924 5.67373 5.34173 6.84042 5.09867 8.10434C5.6334 7.9585 6.09521 7.90989 6.48411 7.9585ZM16.401 7.9585C17.2274 8.05572 17.8837 8.42032 18.3698 9.05227C18.9045 9.68423 19.099 10.5592 18.9531 11.6773C18.8559 12.4065 18.6128 13.0871 18.2239 13.719C17.835 14.3024 17.3489 14.8128 16.7656 15.2503C16.2308 15.6878 15.5989 16.0281 14.8697 16.2712C14.1891 16.4656 13.5086 16.5142 12.828 16.417C11.5641 16.2712 10.7377 15.6635 10.3488 14.5941C9.95988 13.5246 9.88696 12.3093 10.13 10.9481C10.2759 10.2676 10.4946 9.46548 10.7863 8.54185C11.078 7.61822 11.4912 6.67028 12.0259 5.69804C12.5606 4.72579 13.2169 3.77786 13.9947 2.85423C14.8211 1.9306 15.7933 1.10419 16.9114 0.375008C17.3975 0.0833351 17.7621 -0.0381952 18.0052 0.0104169C18.2969 0.0104169 18.4913 0.131947 18.5885 0.375008C18.7344 0.569456 18.7587 0.836823 18.6615 1.17711C18.5642 1.46878 18.3941 1.76045 18.151 2.05213C17.6163 2.68408 17.0329 3.5348 16.401 4.60426C15.8176 5.67373 15.4044 6.84042 15.1614 8.10434C15.6475 7.9585 16.0607 7.90989 16.401 7.9585Z" fill="#F5CE00"/>
</svg>
