<svg width="111" height="110" viewBox="0 0 111 110" fill="none" xmlns="http://www.w3.org/2000/svg">
<circle cx="55.5" cy="55" r="55" fill="white"/>
<path d="M66.25 47.5V38.25H76.75C77.0233 38.25 77.25 38.4767 77.25 38.75V58.75C77.25 59.0233 77.0233 59.25 76.75 59.25H46.75C46.4767 59.25 46.25 59.0233 46.25 58.75V38.75C46.25 38.4767 46.4767 38.25 46.75 38.25H57.25V47.5V48.9014L58.416 48.124L61.75 45.9014L65.084 48.124L66.25 48.9014V47.5ZM39.75 65V65.75H40.5H79.25C79.5233 65.75 79.75 65.9767 79.75 66.25V68.75C79.75 69.0233 79.5233 69.25 79.25 69.25H72.7812H71.7341L72.0712 70.2414C72.1865 70.5806 72.2578 70.9184 72.2578 71.25C72.2578 72.9061 70.9139 74.25 69.2578 74.25C67.6017 74.25 66.2578 72.9061 66.2578 71.25C66.2578 70.9109 66.3245 70.575 66.44 70.254L66.8015 69.25H65.7344H50.2734H49.2263L49.5634 70.2414C49.6787 70.5806 49.75 70.9184 49.75 71.25C49.75 72.9061 48.4061 74.25 46.75 74.25C45.0939 74.25 43.75 72.9061 43.75 71.25C43.75 70.9109 43.8167 70.575 43.9322 70.254L44.2937 69.25H43.2266H36.75C36.4767 69.25 36.25 69.0233 36.25 68.75V40V39.25H35.5H31.75C31.4767 39.25 31.25 39.0233 31.25 38.75V36.25C31.25 35.9767 31.4767 35.75 31.75 35.75H39.25C39.5233 35.75 39.75 35.9767 39.75 36.25V65Z" stroke="#324536" stroke-width="1.5"/>
</svg>
