<svg width="110" height="110" viewBox="0 0 110 110" fill="none" xmlns="http://www.w3.org/2000/svg">
<circle cx="55" cy="55" r="55" fill="white"/>
<path d="M61 54.6704V56.4921L62.5369 55.5141L74.9578 47.6099C74.9578 47.6098 74.9578 47.6098 74.9579 47.6098C75.7169 47.1269 76.7143 47.6745 76.7143 48.574V72.8571C76.7143 73.4883 76.2026 74 75.5714 74H34.1429C33.5117 74 33 73.4883 33 72.8571V37.1429C33 36.5117 33.5117 36 34.1429 36H44.1429C44.7741 36 45.2857 36.5117 45.2857 37.1429V54.6704V56.4921L46.8226 55.5141L59.2435 47.6099C60.0025 47.1269 61 47.6745 61 48.574V54.6704Z" stroke="#324536" stroke-width="2"/>
</svg>
