<svg width="19" height="16" viewBox="0 0 19 16" fill="none" xmlns="http://www.w3.org/2000/svg">
<path d="M16.1514 0.0276376C17.42 0.168897 18.2494 0.781019 18.6397 1.86401C19.03 2.8999 19.1032 4.05352 18.8593 5.32485C18.7129 5.98406 18.4933 6.76098 18.2006 7.65563C17.9079 8.55027 17.4931 9.49199 16.9564 10.4808C16.4198 11.4225 15.7367 12.3407 14.9073 13.2354C14.1266 14.13 13.1752 14.9305 12.053 15.6368C11.5651 15.9193 11.1748 16.037 10.8821 15.9899C10.6381 15.9428 10.4674 15.8251 10.3698 15.6368C10.2722 15.4013 10.2478 15.1424 10.2966 14.8598C10.3942 14.5302 10.5893 14.2242 10.8821 13.9417C11.4188 13.3766 11.9799 12.5761 12.5653 11.5402C13.1996 10.4573 13.6387 9.30365 13.8827 8.0794C13.2972 8.22066 12.8581 8.26775 12.5653 8.22066C11.7847 8.12649 11.126 7.79688 10.5893 7.23185C10.0526 6.61973 9.85748 5.74863 10.0039 4.61856C10.2478 3.25305 10.9797 2.12298 12.1994 1.22834C13.4192 0.286613 14.7365 -0.113621 16.1514 0.0276376ZM6.19822 0.0276376C7.46677 0.168897 8.2718 0.781019 8.61333 1.86401C9.00365 2.8999 9.07684 4.05352 8.83289 5.32485C8.73531 5.98406 8.54015 6.76098 8.24741 7.65563C7.95467 8.55027 7.51556 9.49199 6.93007 10.4808C6.39338 11.4225 5.71032 12.3407 4.88089 13.2354C4.10025 14.13 3.14884 14.9305 2.02667 15.6368C1.53877 15.9193 1.14844 16.037 0.855704 15.9899C0.611753 15.9428 0.440988 15.8251 0.343407 15.6368C0.245827 15.4013 0.221432 15.1424 0.270222 14.8598C0.367802 14.5302 0.538568 14.2242 0.782519 13.9417C1.31921 13.3766 1.8803 12.5761 2.46578 11.5402C3.10005 10.4573 3.53916 9.30365 3.78311 8.0794C3.29521 8.22066 2.88049 8.26775 2.53896 8.22066C1.75832 8.12649 1.09965 7.79688 0.562963 7.23185C0.0750617 6.61973 -0.0957037 5.74863 0.0506667 4.61856C0.148247 3.91226 0.392198 3.2766 0.782519 2.71156C1.17284 2.09944 1.63635 1.58149 2.17304 1.15771C2.75852 0.733933 3.39279 0.427872 4.07585 0.239526C4.75891 0.0511808 5.46637 -0.0194487 6.19822 0.0276376Z" fill="#F5CE00"/>
</svg>
